<svg id="Layer_2" data-name="Layer 2" xmlns="http://www.w3.org/2000/svg" viewBox="0 0 882.75 827.02">   <defs>     <style>       .cls-1 {         fill: #efefef;       }     </style>   </defs>   <g id="Layer_1-2" data-name="Layer 1">     <g>       <g>         <path class="cls-1" d="m868.1,435.79c-2.89-3.06-5.98-5.78-9.23-8.19l.09-.14c-.06-.04-1.03-.65-2.67-1.68-1.07-.72-2.15-1.39-3.25-2.04-12.32-7.71-41.02-25.53-58.19-34.86-16.73-9.09-30.2-16.06-43.43-19.62,2.17-.94,4.29-2.07,6.34-3.46,14.67-9.99,29.76-23.39,36.7-40.08,1.29-3.1-2.41-6.04-5.24-5.24-5.82,1.64-11.59,3.81-17.57,4.8-11.55,1.9-22.79-7.17-12.35-18.11,3.71-3.89,11.57-6.04,16.26-8.7,4.25-2.41,8.61-5.08,12.02-8.63,11.22-11.71,16.75-31.15,22.62-45.98,1.33-3.38-3.34-6.9-6.26-4.81-4.39,3.14-8.52,6.59-12.65,10.07-4.38,3.7-9.72,9.95-14.99,12.11-8.32,3.42-7.69-3.83-6.52-10.13,1.04-5.63,2.83-11.1,5.6-16.12,12.38-22.38,39.58-36.09,59.51-50.7,3.76-2.76,1.67-9-3.28-7.79-32.83,8-66.1,22.9-84.56,52.18-4.05,6.42-7.18,13.41-10.93,20.01-2.33,4.08-4.83,8.75-8.47,11.81-5.29,4.45-15.75,6.45-17.85-2.21-2.52-10.39,10.03-24.15,16.46-31.09,7.16-7.73,15.16-14.61,22.49-22.16,3.5-3.6-.9-8.75-5.17-6.69-24.46,11.78-45.53,29.62-60.95,52.01-8.45,12.27-13.41,25.5-19.7,38.85-3.63,7.72-8.88,16.15-17.84,18.24-6.79,1.59-15.73-2.96-15.22-10.81.44-6.8,7.49-9.24,12.32-11.74,3.81-1.97,1.96-7.98-2.15-7.94-21.33.21-39.43,8.95-52.73,24.07-1.88-4.02-4.1-7.6-6.67-10.32-9.98-10.57-22.34-17.32-35.68-19.83-13.03-8-28.62-17.38-39.6-23.34-37.86-20.57-56.77-28.8-92.29-14.95-9.09,3.54-19.28,8.12-30.2,13.41v-4.39c.17-1.85.69-11.57-5.44-18.51-2.25-2.54-5.07-4.35-8.42-5.48-4.77-3.48-8.98-5.44-9.14-5.51l-65.42-35.52c-.45-1.57-.75-2.95-.75-3.91,0-2.41.62-2.93,2.96-4.87,2.6-2.17,6.16-5.14,8.98-11.78,2.6-6.12-1.95-11.27-5.62-15.41-2.3-2.6-4.91-5.54-4.79-7.58.11-1.96,1.33-4.73,2.5-7.41,1.3-2.96,2.65-6.03,3.09-9.12.96-6.71-4.95-13.05-9.69-18.13-1.5-1.62-3.57-3.83-3.93-4.64-.66-1.51-.08-4.21.48-6.82.86-3.98,1.92-8.94-.79-13.2-3.28-5.15-8.03-6.68-12.23-8.03-2.99-.96-5.57-1.79-7.61-3.8-1.91-1.89-2.4-4.88-2.96-8.35-.8-4.89-1.79-10.97-7.8-14.46-4.28-2.49-9.18-2.41-13.89-2.45-3.27.02-6.4.02-8.87-.82-2.04-.7-3.32-2.3-5.24-4.84-2.51-3.32-5.62-7.45-11.96-8.28-6.3-.84-10.23,1.51-13.68,3.58-2.45,1.47-4.57,2.75-7.81,3.18-3.04.46-7.43-2.3-11.28-4.7-3.93-2.44-7.65-4.75-11.34-4.75h0c-6.17,0-10.24,4.64-13.83,8.73-1.84,2.1-3.75,4.26-5.48,5.2-1.71.91-4.25.62-7.19.29-4.08-.46-9.15-1.04-14.42,1.42-5.54,2.59-6.74,8.6-7.79,13.9-.67,3.35-1.36,6.81-2.95,8.28-.76.7-2.74.82-4.85.95-4.52.27-10.72.65-15.85,6.85-3.15,3.8-2.41,8.8-1.76,13.2.39,2.64.83,5.63.12,6.95-.97,1.81-2.54,2.61-5.23,3.86-3.37,1.57-7.98,3.72-9.84,9.8-1.57,5.15-.31,10.43.91,15.53.92,3.84,1.78,7.47,1.4,10.7-.16,1.4-2.81,4.15-4.74,6.16-3.53,3.66-7.52,7.81-7.52,12.94,0,4.67,3.16,9.08,6.22,13.35,1.97,2.75,4.2,5.87,4.54,7.88.28,1.68-.79,4.45-1.82,7.13-1.6,4.15-3.42,8.85-1.91,13.46,1.91,5.82,6.38,8.54,10.33,10.95,2.93,1.79,5.46,3.33,6.95,5.94.93,1.62,1.06,5.52,1.18,8.96.19,5.45.38,11.09,3.34,14.85,2.92,3.71,7.49,4.76,11.53,5.69,2.65.61,5.39,1.24,6.72,2.49,2.32,2.17,3.48,5.28,4.7,8.57,1.8,4.84,3.83,10.32,9.87,13.72,5.87,3.31,11.73,1.17,16.45-.53,3.6-1.31,7-2.53,10.12-1.64,3.82,1.09,5.97,3.56,8.45,6.43,3.52,4.05,7.9,9.09,17.28,9.09,5.54,0,9.71-2.27,14.54-4.91,2.81-1.53,5.99-3.27,9.97-4.82,2.78-1.12,6.72.65,10.86,2.49,5.78,2.56,12.98,5.77,19.09.52,4.54-3.91,6-7.73,7.41-11.42.91-2.39,1.77-4.64,3.56-7.26,1.13-1.64,4.14-1.55,8.64-1.24,5.59.4,14.06,1,16.56-7.65,2.22-7.7,3.25-12.56,3.65-16.03l36.59,19.98v39.83c-32.1,18.22-65.49,38.36-95.21,56.49-15.1,9.21-73.54,45.52-95.4,64.2-14.33,12.24-27.24,16.11-47.73,47.32-8.55,13.02-8.86,26.62-8.29,37.08.96,17.61,9.86,34.97,13.9,40.83,9.39,13.62,32.46,31.07,51.47,44.12-3.85,3.99-7.62,7.75-11.22,11.14-8.64,8.09-34.32,30.95-46.56,39.5l-35.67,24.47-2.08,1.04c-.5.26-.84.49-1.22.79L0,692.96l43.78,28.76,4.51-5.33.24.08,190.28-114.66,34.61,19.56c7.98-8.95,15.81-18.37,22.64-27.31-13.69,17.93-31.45,37.83-46.33,51.91-8.64,8.09-34.32,30.95-46.56,39.5l-12.2,8.36c-8.49,5.82-17.84,12.23-21.74,14.93l-.45.31-.28-.2-2.33,1.17c-.5.26-.84.49-1.22.79l-39.99,45.47,43.78,28.76,3.26-3.86,192.29-115.87c1.94,3.92,3.74,6.93,4.92,8.64,12.34,17.9,46.55,41.61,66.55,54.57,2.06,2.21,4.23,4.18,6.35,5.72,10.73,7.79,17.45,10.27,25.44,11.92,3.88.81,7.45,1.08,10.55,1.08s5.81-.29,7.79-.61c1.07-.15,1.99-.31,2.74-.46,1.28-.27,2.49-.66,3.8-1.23,7.31-3.26,32.06-14.32,43.91-19.98,12.76-6.08,48.78-25.78,50.36-26.65l60.66-34.27,62.29-34.33,62.17-35.81,35.89-20.18c.19-.12,18.95-12.37,38.2-27.59,8.46-6.69,23.19-23.99,28.31-34.63,3.27-6.79,8.73-20.97,8.49-31.05-.3-12.44-5.03-34.53-14.62-44.67Zm-73.16-25.22c-3.56,1.17-7.22,2.43-10.9,3.76l-58.09-31.72.55-1.01c5.04-.78,9.83-.92,14.64-.41l53.8,29.37Zm-399.86,166.78c2.26-2.3,4.44-4.32,6.57-6.13l59.57,32.52c-.07.05-.13.1-.19.16-.08.06-2.96,2.59-6.43,5.94l-59.52-32.49Zm42.45,52.94l-1.88,3.44c-.91,1.1-1.9,2.33-2.93,3.65l-58.37-31.87c.85-1.87,1.8-3.74,3.01-5.58.43-.66.82-1.18,1.24-1.81l58.93,32.18Zm-15.85-72.55l-1.39-.76c1.07-.85,2.12-1.65,3.2-2.57,1.19-1.02,2.51-2.1,3.94-3.24l59.61,32.54c-2.42,1.8-4.94,3.7-7.47,5.63l-57.89-31.61Zm32.76-18.66h0s-6-3.27-6-3.27c2.56-1.77,5.2-3.58,7.89-5.4l59.88,32.69c-2.71,1.8-5.32,3.58-7.93,5.38l-53.84-29.4Zm21.45-21.64c1.72-1.12,3.41-2.2,5.11-3.3h0c1.01-.65,2.04-1.32,3.04-1.96l60.23,32.88c-2.92,1.79-5.72,3.52-8.34,5.16l-60.03-32.78Zm27.1-17.28c2.94-1.84,5.71-3.56,8.32-5.17l60.78,33.19-8.41,5.12-60.68-33.14Zm31.81-19.49c2.81-1.71,5.63-3.41,8.44-5.11l60,32.76-.72,1.32c-2.27,1.37-4.55,2.75-6.95,4.21l-60.77-33.18Zm31.01-18.64c2.85-1.7,5.69-3.38,8.52-5.06l61.43,33.55c-1.68.94-3.34,1.88-4.98,2.8-1.29.72-2.54,1.43-3.78,2.13l-61.19-33.41Zm31.45-18.5c2.91-1.69,5.79-3.34,8.67-4.99l61.59,33.54c-.74.44-1.53.91-2.15,1.3-1.83,1.14-3.98,2.43-6.31,3.81l-61.8-33.65Zm31.37-17.79c2.98-1.65,5.94-3.28,8.86-4.87l61.55,33.61c-2.67,1.45-5.69,3.09-8.9,4.85l-61.51-33.59Zm32.95-17.17l.35-.64c2.86-1.46,5.68-2.9,8.45-4.27l61.38,33.51c-3.04,1.55-6.11,3.14-9.15,4.72l-61.03-33.33Zm37.71-8.96h0s-6.59-3.6-6.59-3.6l2.07-3.79c1.66-.72,3.31-1.44,4.91-2.11l8.32,4.54h0s52.73,28.79,52.73,28.79c-3.78,1.59-7.14,3.05-9.88,4.32l-51.55-28.15Zm-75.31-112.03c-.74,1.11-1.35,2.34-1.8,3.71-2.11,6.42.05,14,4.57,18.89,11.55,12.5,30.12,4.21,38.4-7.6,5.97-8.52,8.83-18.79,13.28-28.08,4.81-10.05,10.81-19.52,17.78-28.21,4.85-6.05,10.18-11.64,15.9-16.77-6.54,8.2-11.32,17.14-11.58,26.9-.55,20.61,25.34,19.1,35.56,7.48,12.46-14.18,16.65-34.11,30.62-47.28,11.07-10.43,25.74-18.17,40.85-23.87-19.85,13.67-39.5,29.26-45.25,52.54-2.45,9.92-5.36,27.69,10.13,26.33,8.14-.71,15.85-7.21,22.94-13.83-2.92,6.87-6.08,13.64-9.76,20.06-7.98,13.89-24.64,14.79-35.13,25.51-8,8.17-5.37,20.2,3.44,26.73,8.39,6.21,18.43,4.29,27.93,1.51-8.18,12.67-22.44,25.01-34.69,30.66-5.54,2.56-11.47,3.66-17.49,4.44-3.9.14-7.92.62-12.11,1.45-6.56.91-12.98,2.32-18.9,5.68-3.48,1.36-7.11,2.87-10.86,4.49l-8.74-5.7c.37-.03.75-.07,1.11-.08,1.86-.11,3.71-.23,5.56-.45,14.44-1.69,27.83-8.01,40.1-15.55,2.42-1.49,4.81-3.04,7.18-4.63,2.87-1.93.4-6-2.69-4.59-1.66.77-3.76,1.52-5.79,2.13-2.25.66-4.58,1.24-6.94,1.31-1.9.05-3.63-.46-5.26-1.91-.78-.68-1.53-1.51-1.96-2.44-.36-.82-.4-1.32-.15-1.8.81-1.31,1.72-2.66,2.94-3.6.97-.74,1.81-.95,3-1.36,2.66-.94,5.3-1.86,7.69-3.39,2.58-1.65,5.22-3.71,6.78-6.41,1.39-2.38,2.38-4.99,3.54-7.49.97-2.06,1.99-4.1,3.15-6.07,1.34-1.67,2.56-3.41,3.6-5.25.65-1.15.37-2.64-.69-3.43-.96-.71-2.65-.84-3.49.21-.14.18-.29.36-.41.54-1.28,1.65-2.44,3.36-3.5,5.13-2.67,3.36-5.84,6.43-8.98,8.84-.63.49-1.68,1.11-2.5,1.62-.01.01-.02.01-.03.01.06-.05.1-.1.1-.11-.03.01-.18.14-.18.16-.02-.01-.05-.02-.11-.03-.19-.04-.2-.03-.17-.02-.03-.01-.06-.02-.1-.03-.55-.17-.3-.05-.63-.23-1.24-.64-2.11-1.42-3.09-2.51-.46-.5-.66-.75-1.01-1.3-.19-.28-.36-.56-.52-.85-.05-.11-.23-.51-.3-.63h0v-.02h-.01c-.03-.09-.05-.16-.07-.24h0c-.01-.05-.04-.24-.03-.42.05-.72.11-1.21.18-1.69.22-1.31.53-2.6.96-3.87.69-2.04,1.87-4.23,3.39-6.21.07-.09.35-.43.39-.49.21-.26.44-.5.65-.75.46-.5.91-.99,1.39-1.47,1.01-1.01,2.07-1.94,3.17-2.85,2.24-1.84,4.81-3.56,7.34-5.17,4.35-2.75,8.81-5.32,13.28-7.87,3.42-1.77,6.78-3.66,10.01-5.77,2.85-1.86.29-6.34-2.68-4.59-3.37,2-6.78,3.93-10.19,5.88-4.77,2.48-9.66,4.75-14.47,7.12-6.67,3.28-13,6.98-18.91,11.49-2.85,2.17-5.28,4.75-7.69,7.37-2.51,2.75-4.61,5.9-7.31,8.48-2.25,2.16-4.82,3.11-8.15,2.51-.28-.05-.55-.15-.83-.17-.19-.02-.23-.02-.23,0h-.01c-.13-.12-.24-.23-.37-.37-.51-.54-.72-1.05-1.17-1.68.07-.32.13-.64.21-.95.28-1.06.62-2.11,1.05-3.12,3.79-8.86,11.68-15.63,18.86-21.74,2.39-2.04-.66-5.48-3.22-4.18-7.45,3.81-14.33,8.65-20.49,14.32-5.95,5.49-11.16,11.73-15.99,18.22-1.28,1.69-2.52,3.41-3.74,5.14-.05.07-.29.39-.39.55t0,.01s-.03.05-.04.05-.01.01-.01.01c0,.01-.01.01-.01.01-.13.18-.28.34-.43.51-.46.53-.95,1.03-1.43,1.53-2.4,2.39-5.04,4.58-7.78,6.58-1.26.92-2.56,1.82-3.91,2.64-.56.34-1.14.66-1.72.97-.07.03-.14.06-.2.11-.01,0-.02.01-.03.01-.01.01-.03.01-.06.03-.05.02-.11.04-.12.04-.29.09-.57.18-.87.24-1.26.33-2.37.4-3.94.34-1.52-.06-2.9-.33-4.42-.81-1.69-.52-3.35-1.33-4.72-2.47-1.41-1.16-3.03-2.85-3.92-4.31-.06-.1-.12-.2-.17-.31.07.11-.01-.22-.04-.22.01-.14.03-.52.06-.72.13-.7.48-1.15,1.13-1.65,1.5-1.14,3.44-1.76,5.16-2.5,3.15-1.33,2.01-5.63-1.41-5.12-5.41.81-11.2,1.2-16.32,3.27-3.73,1.51-6.59,3.98-9.07,6.96l-11.8-6.34c-.74-4.67-1.87-9.71-3.4-14.59,8.63-11.21,19.85-19.03,33.18-22.56Zm59.91,29.86s.01.05,0,.13c-.03-.04-.06-.11,0-.13Zm37.4,6.56s.02-.01.05-.03c-.02.01-.03.03-.04.04h-.01Zm-109.5,25.05v37.35l-283.61,171.18v-44.03l283.61-164.5Zm-37.36-52.51c2.71,2.88,5.02,7.25,6.87,12.19,1.25,3.34,2.3,6.94,3.13,10.52.02.09.04.19.06.28l-16.97-9.11.36-13.85.14-5.02-4.38-2.38-17.13-9.32c10.36,2.56,19.89,8.18,27.93,16.69Zm-199.44,115.4c-1.19-.98-2.49-1.78-3.83-2.41l148.91-85.62,39.16-22.39-.67,26.03-177.67,105.24c.64-1.99,1-4.12,1-6.37,0-5.59-2.51-10.87-6.89-14.49Zm-21.61,14.49c0-7.06,5.76-9.23,9.2-9.89.46-.09.93-.13,1.41-.13,1.94,0,3.91.73,5.58,2.11,2.37,1.96,3.79,4.91,3.79,7.91,0,6.24-4.34,10.94-10.09,10.94-7.29,0-9.89-5.65-9.89-10.94Zm5.88,19.07l-12.59,7.49-.04-17.7c2.33,5.34,6.82,9.05,12.64,10.21Zm77.72-211.28c5.04-.78,9.83-.92,14.64-.41l53.8,29.37c-3.56,1.17-7.22,2.43-10.9,3.76l-58.09-31.72.55-1.01Zm-31.74,10.61c1.66-.72,3.31-1.44,4.91-2.11l61.04,33.33c-3.78,1.59-7.14,3.05-9.88,4.32l-58.14-31.74,2.07-3.79Zm-22.4,12.53l59.39,32.43c-3.04,1.55-6.11,3.14-9.15,4.72l-50.24-27.43v-9.71Zm0,35.17l26.68,14.57c-2.67,1.45-5.69,3.09-8.9,4.85l-17.77-9.7v-9.71Zm0,49.94c8.91-5.13,21.69-12.07,29.37-16.24l3.37-1.83c11.95-6.5,31.28-16.56,43.56-22.4,13.05-6.21,46.22-19.47,63.13-22.68,2-.38,3.98-.65,5.95-.82l-145.38,82.93v-18.96Zm0,50.34v-21.56l153.18-87.39,18.89,10.29-106.7,61.01-101.66,58.68v-.09l-.38-156.72c3.72,3.35,8.68,5.28,14.44,5.28,5.24,0,9.98-1.84,13.71-4.94l-.02,140.35,8.52-4.92Zm-21.37-165.17c2.27,0,4.59.87,6.56,2.49,2.79,2.3,4.46,5.78,4.46,9.3,0,7.33-5.1,12.86-11.86,12.86-8.57,0-11.62-6.64-11.62-12.86,0-6.96,2.93-10.12,10.81-11.64.54-.1,1.1-.16,1.65-.16Zm-91.94,6.76c-.45,1.57-1.52,1.96-7.76,1.51-5.2-.36-12.32-.87-16.29,4.95-2.34,3.44-3.47,6.4-4.47,9-1.22,3.19-2.1,5.5-5.01,8.01-1.81,1.56-4.58.59-10.06-1.84-5.31-2.36-11.33-5.05-17.43-2.64-4.48,1.75-7.92,3.63-10.95,5.28-4.27,2.33-7.09,3.87-10.45,3.87-5.49,0-7.62-2.45-10.84-6.16-2.8-3.23-6.29-7.24-12.54-9.03-1.57-.45-3.11-.63-4.6-.63-4,0-7.66,1.33-10.77,2.46-4.28,1.55-7.02,2.43-9.35,1.12-3.16-1.78-4.36-4.68-6.06-9.26-1.44-3.88-3.08-8.28-6.87-11.83-3.01-2.81-7.06-3.75-10.63-4.57-2.79-.65-5.68-1.31-6.75-2.66-1.23-1.57-1.39-6.17-1.52-9.86-.16-4.64-.32-9.45-2.3-12.9-2.58-4.51-6.47-6.89-9.91-8.98-3.56-2.17-5.78-3.63-6.66-6.33-.56-1.72.67-4.92,1.76-7.73,1.45-3.75,2.94-7.63,2.28-11.61-.67-3.96-3.39-7.76-6.02-11.44-2.06-2.87-4.62-6.45-4.62-8.38,0-1.69,2.97-4.78,5.14-7.03,3.23-3.36,6.56-6.83,7.06-11.07.56-4.73-.53-9.28-1.58-13.67-1-4.18-1.94-8.13-1.05-11.06.72-2.35,2.22-3.14,5.29-4.57,3.01-1.41,6.77-3.16,9.13-7.54,2.06-3.82,1.4-8.29.81-12.24-.33-2.25-.83-5.65-.11-6.52,2.64-3.18,5.44-3.51,9.8-3.78,3.34-.2,7.13-.43,10.13-3.21,3.61-3.36,4.62-8.41,5.51-12.87.7-3.48,1.41-7.08,3.04-7.84,3.08-1.44,6.36-1.08,9.85-.67,3.81.42,8.13.92,12.18-1.25,3.09-1.66,5.51-4.41,7.86-7.08,2.51-2.87,5.12-5.83,7.43-5.83,1.26,0,4.48,2.01,6.84,3.47,5.07,3.16,10.81,6.7,16.91,5.92,4.99-.67,8.36-2.69,11.07-4.32,2.89-1.73,4.79-2.87,8.18-2.44,2.66.35,3.98,1.94,6.27,4.97,2.08,2.76,4.67,6.18,9.27,7.76,3.83,1.32,7.78,1.27,11.67,1.29,3.74.02,7.3-.02,9.57,1.29,2.41,1.4,2.94,4,3.67,8.46.7,4.32,1.5,9.21,5.39,13.05,3.49,3.45,7.48,4.73,11,5.86,3.85,1.24,6.1,2.05,7.65,4.49.84,1.31.23,4.12-.35,6.83-.81,3.75-1.72,8,.04,12.03.94,2.14,2.95,4.3,5.5,7.04,2.94,3.16,7.86,8.43,7.48,11.11-.27,1.93-1.38,4.46-2.45,6.9-1.48,3.37-3.01,6.85-3.21,10.34-.32,5.54,3.52,9.89,6.91,13.72,1.85,2.09,4.65,5.26,4.16,6.43-2.02,4.75-4.35,6.69-6.6,8.57-2.65,2.21-5.64,4.7-5.98,10.31l-80.61-43.77c-6.95-3.77-15.04-3.64-21.83.27-7.63,2.82-11.5,8.5-11.5,16.99,0,1.4.12,2.74.33,4.02.54,7.53,4.93,14.4,11.59,18.04l89.89,49.08c.16,2.48-.2,6.68-3.52,18.21Zm-69.77-89.35c0,6.24-4.34,10.94-10.09,10.94s-8.78-3.78-9.61-8.05c-.18-4.97,2.21-9.5,6.41-12.17.76-.23,1.59-.44,2.51-.62.46-.09.93-.13,1.41-.13,1.94,0,3.91.74,5.58,2.12,2.38,1.96,3.8,4.92,3.8,7.91Zm-4.92,18.71c7.84-2.29,13.45-9.69,13.45-18.71,0-2.11-.36-4.17-1.04-6.11l145.12,78.78c-3.91,1.6-7.12,4.49-9.49,8.56-1.81,2.42-2.99,5.31-3.53,8.67-.64,2.42-1.05,4.83-1.31,7.03l-143.19-78.21Zm150.1,260.79s0,.04,0,.06l-.67.38v-.05l.67-.39Zm-28.53-133.39l1.56.85v9.71l-10.23-5.57c2.91-1.69,5.79-3.34,8.67-4.99Zm-31.59,18.42l33.16,18.11v9.71l-41.68-22.76c2.85-1.7,5.69-3.38,8.52-5.06Zm-31.1,18.6l60,32.76-.72,1.32c-2.27,1.37-4.55,2.75-6.95,4.21l-60.77-33.18c2.81-1.71,5.63-3.41,8.44-5.11Zm-31.92,19.43l60.78,33.19-8.41,5.12-60.68-33.14c2.94-1.84,5.71-3.56,8.32-5.17Zm-27.27,17.18l60.23,32.88c-2.92,1.79-5.72,3.52-8.34,5.16l-60.03-32.77c2.74-1.78,5.45-3.53,8.15-5.26Zm-27.7,18.23l59.88,32.69c-2.71,1.8-5.32,3.58-7.93,5.38l-59.84-32.67c2.56-1.77,5.2-3.58,7.89-5.4Zm-32.84,24.01c1.19-1.02,2.51-2.1,3.94-3.24l59.61,32.54c-2.42,1.8-4.94,3.7-7.47,5.63l-59.28-32.37c1.07-.85,2.12-1.65,3.2-2.57Zm-21.84,16.82l59.57,32.52c-.07.05-.13.1-.19.16-.08.06-2.96,2.59-6.43,5.94l-59.52-32.49c2.26-2.3,4.44-4.32,6.57-6.13Zm-29.47,71.76c-.84-3.43-1.42-6.96-1.66-10.47l50.86,26.46-3.93,7.56-45.27-23.56Zm48.91,56.72l-12.98-7.09c-10.21-8.07-19.1-16.13-24.19-22.92l38.47,21.01c.19,1.76.42,3.53.72,5.3l-2.02,3.71Zm-46.74-94.2c.85-1.87,1.8-3.74,3.01-5.58.43-.66.82-1.18,1.24-1.81l58.93,32.18-4.08,7.48-59.1-32.27Zm-1.04,170.1c12.62-8.81,38.76-32.07,47.55-40.3,15.29-14.47,32.99-34.26,47.35-52.95,2.69-3.54,18-24.87,21.09-29.18l28.05-15.98v34.8c-.06.09-.13.19-.2.28-.13.17-.26.37-.41.57-.21.29-.43.6-.67.93-1.79,2.5-4.44,6.18-7.21,10.03-.08.11-.16.22-.24.34-.56.78-1.13,1.57-1.69,2.35-.04.06-.09.12-.13.18-.89,1.24-1.77,2.46-2.63,3.65-.11.15-.21.29-.31.43-.22.31-.44.61-.66.91-.03.03-.05.07-.08.1-.23.32-.46.64-.69.96-.08.12-.17.23-.25.35-.2.28-.4.55-.59.82-.06.08-.12.16-.17.24-.17.23-.33.46-.49.68-.1.14-.21.28-.31.42-.46.63-.89,1.23-1.29,1.78-.08.11-.16.22-.24.33-.13.18-.26.36-.38.52-.06.08-.11.16-.17.24-.13.17-.25.34-.36.5-.05.07-.11.15-.16.22-.11.15-.22.3-.32.43-.05.07-.11.15-.16.22-.09.12-.16.22-.24.32-.04.06-.09.12-.13.18-.11.15-.21.29-.3.41-13.43,17.58-31.22,37.45-46.43,51.84-7.88,7.46-34.13,30.9-46.57,39.5-6.9,4.81-20.4,14.04-28.69,19.71-1.82,1.24-3.4,2.32-4.59,3.13l-26.28-19.07,28.98-19.88Zm-16.56,67.04l16.66-19.68c1.72-1.17,7.85-5.35,14.79-10.1,7.36-5.04,15.64-10.72,20.56-14.15,12.98-8.98,39.29-32.47,47.57-40.3,15.52-14.68,33.66-34.93,47.38-52.89.1-.13.21-.28.34-.45.04-.06.09-.13.14-.19.09-.12.18-.25.28-.38.06-.09.13-.18.2-.28.11-.15.22-.3.34-.46.06-.08.11-.15.16-.23.4-.55.85-1.17,1.34-1.85,0,0,.01-.02.02-.03.22-.3.45-.62.69-.95.08-.1.15-.21.23-.32,2.79-3.86,6.56-9.09,9.92-13.77v56.42l2.42,1.37-163.03,98.24Zm161.88-239.01l-.16.18-1.11-.6v1.81l-.67.73-.7,5,1.37.74v15.86l-33.08,18.89-1.35,1.22s-18.53,25.83-21.48,29.72c-7.9,10.29-17.08,21.15-26.23,31.19-2.95-8-4.68-16.94-4.77-25.21-.12-10.93.8-20.05,5.74-29.01,4.41-8.01,17.94-23.74,26.32-30.6,16.71-13.68,31.75-24.54,44.26-33.36,4.99-3.51,11.01-7.48,15.97-10.76l5.32-3.52c7.93-5.3,22.72-14.21,34.61-21.37l20.08-12.21c7.96-4.89,17.3-10.62,24.74-15.06v24.8l-88.85,51.56Zm9.83,4.15l79.02-45.86v33.71l24.45,13.35v-.41s3.97,1.91,3.97,1.91l2.39-1.42,7.84-4.68c.36-.16.73-.35,1.08-.56l209.24-123.95.32-12.53,40.05,21.5-283.48,164.75-84.89-45.81Zm124.59,130.91c-9.12,13.9-9.59,28.5-8.98,39.66.52,9.61,3.21,18.92,6.23,26.53l-169.35,102.05,16.66-19.69c2.68-1.83,16.07-10.95,26.57-18.17.27-.18.53-.36.79-.54.11-.07.22-.15.32-.22,2.94-2.02,5.6-3.86,7.67-5.31,12.95-8.96,39.28-32.46,47.57-40.3,15.34-14.51,33.44-34.76,47.26-52.85,2.77-3.61,18.1-24.97,21.19-29.28l4.54-2.59c-.16.24-.32.48-.48.72Zm-9.09-5.08l-1.35,1.22s-18.52,25.83-21.58,29.82c-13.56,17.76-31.32,37.62-46.34,51.84-7.89,7.47-34.16,30.91-46.57,39.5-6.77,4.72-19.91,13.7-28.24,19.39-2.02,1.38-3.76,2.56-5.05,3.45l-26.28-19.07c4.6-3.16,10.89-7.47,16.76-11.49l12.23-8.38c12.62-8.81,38.76-32.07,47.55-40.3,15.2-14.39,33.31-34.68,47.23-52.9,2.84-3.63,18.18-24.99,21.25-29.27l303.62-183.25c.71-.36,1.4-.78,2.08-1.25l27.79-16.77,21.03,13.7c-45.97,21.13-108.66,58.3-170.56,96.05-2.9,1.77-71.4,43.63-95.94,64.6-3.51,3-6.94,5.48-10.42,8-7.7,5.59-15.6,11.32-25.06,22.53l-22.13,12.61Zm17.73,56.77c-.84-3.43-1.42-6.96-1.66-10.47l50.49,26.27c-.17.61-.33,1.22-.48,1.83l-3.08,5.92-45.27-23.56Zm35.93,49.63c-10.21-8.07-19.1-16.13-24.19-22.92l35.25,19.25c.4,3.58,1.05,7.2,1.91,10.76l-12.98-7.09Zm458.44-184.8c-4.21,8.74-17.53,25.01-25.93,31.65-18.91,14.95-37.33,26.99-37.32,26.99l-35.7,20.06-62.13,35.79-62.26,34.31-60.65,34.26c-.37.2-37.34,20.43-49.89,26.41-11.76,5.61-36.42,16.64-43.7,19.88-.39.17-.75.31-1.11.42l-.11-.24c-.71.32-1.35.52-2.03.67-.26.05-.58.11-.93.17-3.1.42-8.25.71-14.31-.53-5.3-1.1-9.8-2.57-15.82-6.23l.47-.79c-.15-.09-4.14-2.5-10.3-6.43-3.96-3.82-7.78-8.99-9.83-13.55-4.08-9.05-6.49-19.91-6.6-29.79-.12-10.94.81-20.06,5.74-29.01,4.4-8,17.93-23.72,26.32-30.59,16.7-13.67,31.75-24.54,44.26-33.36,5.1-3.59,11.26-7.65,16.29-10.96l5.02-3.31c7.88-5.29,22.61-14.15,34.44-21.28l20.15-12.25c10.33-6.34,23.04-14.13,30.85-18.67,4.5-2.61,10.74-6.12,17.51-9.92,12.45-7,26.57-14.94,34.92-20.13,7.83-4.88,26.98-15.26,36.17-20.25l3-1.62c11.91-6.49,31.23-16.53,43.55-22.4,13.05-6.21,46.25-19.48,63.14-22.68,3.75-.72,7.45-1.07,11.1-1.07,9.38,0,18.34,2.35,26.47,6.88,2.13,1.33,3.85,2.42,5.07,3.18,3.34,2.35,6.52,5.09,9.49,8.24,7.6,8.04,12.02,27.82,12.29,39.01.2,8.48-4.91,21.47-7.64,27.16Z"></path>         <path class="cls-1" d="m515.11,639.56c-10.62-8.86-23.26-12.36-35.59-9.87-30.31,6.11-40.55,30.22-40.03,50.75.33,12.8,5.67,24.97,14.66,33.41,7.96,7.47,18.17,11.53,28.93,11.53.53,0,1.07,0,1.6-.02,23.31-.87,48.38-18.21,48.94-48.62.24-13.01-7.03-27.61-18.51-37.18Zm-30.75,77.28c-9.01.31-17.7-2.92-24.38-9.19-7.34-6.89-11.71-16.88-11.97-27.42-.22-8.28,1.56-35.81,33.19-42.18,2.01-.41,4.04-.61,6.06-.61,7.8,0,15.57,2.97,22.39,8.66,9.57,7.98,15.64,19.96,15.44,30.49-.46,25.17-21.33,39.52-40.73,40.25Z"></path>         <path class="cls-1" d="m813.63,458.02c-15.92,3.21-20.89,15.62-20.63,26.18.33,12.91,10.29,23.44,22.97,22.97,12.52-.47,24.98-9.94,25.26-25.03.22-12.21-12.66-27.12-27.6-24.11Z"></path>         <path class="cls-1" d="m484.23,660.91c-10.61,2.14-13.92,10.4-13.74,17.43.22,8.6,6.85,15.61,15.3,15.3,8.34-.31,16.64-6.62,16.82-16.67.15-8.13-8.43-18.06-18.38-16.06Z"></path>         <path class="cls-1" d="m845.83,444.41c-10.62-8.86-23.26-12.36-35.59-9.87-30.31,6.11-40.55,30.22-40.03,50.75.33,12.8,5.67,24.97,14.66,33.41,7.96,7.47,18.17,11.53,28.93,11.53.53,0,1.07,0,1.6-.02,23.31-.87,48.38-18.21,48.94-48.62.24-13.01-7.03-27.61-18.51-37.18Zm-30.75,77.28c-9.01.31-17.7-2.92-24.38-9.19-7.34-6.89-11.71-16.88-11.97-27.42-.22-8.28,1.56-35.81,33.19-42.18,2.01-.41,4.04-.61,6.06-.61,7.8,0,15.57,2.97,22.39,8.66,9.57,7.98,15.64,19.96,15.44,30.49-.46,25.17-21.33,39.52-40.73,40.25Z"></path>       </g>       <g>         <path class="cls-1" d="m317.42,54.75h45.63v10.58h-33.12v17.85h28.71v10.58h-28.71v25.39h-12.51V54.75Z"></path>         <path class="cls-1" d="m370.88,54.75h12.51v64.4h-12.51V54.75Z"></path>         <path class="cls-1" d="m394.88,108.57v-43.24l10.58-10.58h32.02l10.39,10.4v9.84h-12.51v-5.24l-4.32-4.32h-18.95l-4.69,4.69v33.67l4.69,4.69h19.14l4.51-4.51v-10.03h-13.8v-10.67h25.94v25.3l-10.58,10.58h-31.83l-10.58-10.58Z"></path>         <path class="cls-1" d="m458,54.75h12.51v26.96h27.23v-26.96h12.51v64.4h-12.51v-26.77h-27.23v26.77h-12.51V54.75Z"></path>         <path class="cls-1" d="m536.84,65.33h-19.23v-10.58h50.97v10.58h-19.23v53.82h-12.51v-53.82Z"></path>       </g>       <g>         <path class="cls-1" d="m382.28,140h40.39l9.2,9.2v18.03l-3.68,3.77,6.53,6.62v16.84l-9.94,9.94h-42.5v-64.4Zm33.95,26.96l3.31-3.31v-9.94l-3.22-3.22h-21.8v16.47h21.71Zm2.21,26.96l3.96-3.96v-9.02l-3.96-3.96h-23.92v16.93h23.92Z"></path>         <path class="cls-1" d="m443,193.82v-43.24l10.58-10.58h33.12l10.58,10.58v43.24l-10.58,10.58h-33.12l-10.58-10.58Zm37.08-.09l4.69-4.69v-33.67l-4.69-4.69h-19.87l-4.69,4.69v33.67l4.69,4.69h19.87Z"></path>         <path class="cls-1" d="m521.57,150.58h-19.23v-10.58h50.97v10.58h-19.23v53.82h-12.51v-53.82Z"></path>         <path class="cls-1" d="m561.13,140h12.51v64.4h-12.51v-64.4Z"></path>         <path class="cls-1" d="m585.14,193.82v-43.24l10.58-10.58h31.46l10.4,10.4v9.84h-12.51v-5.24l-4.32-4.32h-18.4l-4.69,4.69v33.67l4.69,4.69h18.4l4.32-4.32v-5.24h12.51v9.84l-10.4,10.4h-31.46l-10.58-10.58Z"></path>         <path class="cls-1" d="m644.94,194.46v-9.2h12.33v5.43l3.04,3.04h19.04l3.13-3.13v-10.67l-3.04-3.04h-24.38l-9.94-9.94v-17.02l9.94-9.94h29.07l9.94,9.94v9.29h-12.33v-5.52l-3.04-3.04h-18.21l-3.04,3.04v9.48l3.04,3.04h24.38l9.94,9.94v18.12l-10.12,10.12h-29.81l-9.94-9.94Z"></path>       </g>       <path class="cls-1" d="m421.26,9c130.46,0,246.7,62.09,320.71,158.27l6.36-6.8c-10.67-13.76-22.23-26.9-34.69-39.36-37.97-37.97-82.19-67.79-131.43-88.61C531.24,10.93,477.08,0,421.26,0c-45.76,0-90.41,7.35-133.1,21.89l3.29,8.48c40.76-13.85,84.42-21.36,129.81-21.36Z"></path>       <path class="cls-1" d="m742.45,659.12c-73.99,96.53-190.45,158.88-321.19,158.88-65.46,0-127.34-15.64-182.1-43.36l-4.28,8.07c8.32,4.2,16.79,8.15,25.43,11.8,50.98,21.56,105.13,32.5,160.95,32.5s109.97-10.93,160.95-32.5c49.24-20.83,93.46-50.64,131.43-88.61,13.84-13.84,26.59-28.53,38.23-43.97l-9.43-2.79Z"></path>       <path class="cls-1" d="m16.77,413.5c0-65.42,15.62-127.27,43.32-182.01l-7.82-4.77c-4.28,8.45-8.29,17.05-12,25.83-21.56,50.98-32.5,105.13-32.5,160.95s10.93,109.97,32.5,160.95c4.06,9.6,8.47,19,13.21,28.2l7.56-5.28c-28.29-55.2-44.26-117.71-44.26-183.87Z"></path>     </g>   </g> </svg>